<svg width="20" height="20" viewBox="0 0 20 20" fill="none" xmlns="http://www.w3.org/2000/svg">
<g id="book_5">
<mask id="mask0_1_85" style="mask-type:alpha" maskUnits="userSpaceOnUse" x="0" y="0" width="20" height="20">
<rect id="Bounding box" width="20" height="20" fill="#D9D9D9"/>
</mask>
<g mask="url(#mask0_1_85)">
<path id="book_5_2" d="M6 18C5.44444 18 4.97222 17.809 4.58333 17.4271C4.19444 17.0451 4 16.5833 4 16.0417V4.52082C4 4.0486 4.15278 3.63541 4.45833 3.28124C4.76389 2.92707 5.15278 2.70138 5.625 2.60416L11.1875 1.43749C11.6597 1.34027 12.0799 1.44096 12.4479 1.73957C12.816 2.03819 13 2.43055 13 2.91666V12.8958C13 13.2569 12.8889 13.5729 12.6667 13.8437C12.4444 14.1146 12.1593 14.2827 11.8113 14.3482L5.93862 15.5857C5.82676 15.6119 5.72569 15.6684 5.63542 15.7552C5.54514 15.842 5.5 15.9375 5.5 16.0417C5.5 16.1805 5.55 16.2917 5.65 16.375C5.75 16.4583 5.86667 16.5 6 16.5H14.5V4.24999C14.5 4.03749 14.5715 3.85937 14.7144 3.71562C14.8573 3.57187 15.0344 3.49999 15.2456 3.49999C15.4569 3.49999 15.6354 3.57187 15.7812 3.71562C15.9271 3.85937 16 4.03749 16 4.24999V16.5C16 16.9125 15.8531 17.2656 15.5594 17.5594C15.2656 17.8531 14.9125 18 14.5 18H6ZM8 13.6042L11.5 12.8542V2.91666L8 3.64582V13.6042ZM6.5 13.9167V3.97916L5.875 4.10416C5.76389 4.13194 5.67361 4.18188 5.60417 4.25399C5.53472 4.32612 5.5 4.41506 5.5 4.52082V14.1667C5.56944 14.1389 5.64236 14.118 5.71875 14.1042C5.79514 14.0903 5.86806 14.0694 5.9375 14.0417L6.5 13.9167Z" fill="white"/>
</g>
</g>
</svg>
