<svg width="20" height="20" viewBox="0 0 20 20" fill="none" xmlns="http://www.w3.org/2000/svg">
<g id="group_add">
<mask id="mask0_1_63" style="mask-type:alpha" maskUnits="userSpaceOnUse" x="0" y="0" width="20" height="20">
<rect id="Bounding box" width="20" height="20" fill="#D9D9D9"/>
</mask>
<g mask="url(#mask0_1_63)">
<path id="group_add_2" d="M9.375 9.9375C9.73611 9.52083 10.0139 9.06167 10.2083 8.56002C10.4028 8.05837 10.5 7.53836 10.5 7C10.5 6.46649 10.4028 5.95117 10.2083 5.45404C10.0139 4.9569 9.73611 4.49306 9.375 4.0625C9.48611 4.03472 9.59028 4.01736 9.6875 4.01042C9.78472 4.00347 9.88889 4 10 4C10.8333 4 11.5417 4.29167 12.125 4.875C12.7083 5.45833 13 6.16667 13 7C13 7.83333 12.7083 8.54167 12.125 9.125C11.5417 9.70833 10.8333 10 10 10C9.88889 10 9.78125 9.99653 9.67708 9.98958C9.57292 9.98264 9.47222 9.96528 9.375 9.9375ZM13.1042 16C13.2292 15.7639 13.3264 15.5195 13.3958 15.267C13.4653 15.0144 13.5 14.7587 13.5 14.5V14.0833C13.5 13.5139 13.3681 12.9826 13.1042 12.4896C12.8403 11.9965 12.4722 11.5764 12 11.2292C12.9444 11.4514 13.8472 11.7569 14.7083 12.1458C15.5694 12.5347 16 13.1806 16 14.0833V14.5C16 14.9125 15.8531 15.2656 15.5594 15.5594C15.2656 15.8531 14.9125 16 14.5 16H13.1042ZM16.25 9.25H15.25C15.0375 9.25 14.8594 9.17855 14.7156 9.03565C14.5719 8.89273 14.5 8.71565 14.5 8.5044C14.5 8.29313 14.5719 8.11458 14.7156 7.96875C14.8594 7.82292 15.0375 7.75 15.25 7.75H16.25V6.75C16.25 6.5375 16.3215 6.35937 16.4644 6.21562C16.6073 6.07187 16.7844 6 16.9956 6C17.2069 6 17.3854 6.07187 17.5312 6.21562C17.6771 6.35937 17.75 6.5375 17.75 6.75V7.75H18.75C18.9625 7.75 19.1406 7.82145 19.2844 7.96435C19.4281 8.10727 19.5 8.28435 19.5 8.4956C19.5 8.70687 19.4281 8.88542 19.2844 9.03125C19.1406 9.17708 18.9625 9.25 18.75 9.25H17.75V10.25C17.75 10.4625 17.6785 10.6406 17.5356 10.7844C17.3927 10.9281 17.2156 11 17.0044 11C16.7931 11 16.6146 10.9281 16.4688 10.7844C16.3229 10.6406 16.25 10.4625 16.25 10.25V9.25ZM6 10C5.16667 10 4.45833 9.70833 3.875 9.125C3.29167 8.54167 3 7.83333 3 7C3 6.16667 3.29167 5.45833 3.875 4.875C4.45833 4.29167 5.16667 4 6 4C6.83333 4 7.54167 4.29167 8.125 4.875C8.70833 5.45833 9 6.16667 9 7C9 7.83333 8.70833 8.54167 8.125 9.125C7.54167 9.70833 6.83333 10 6 10ZM0 14.5V14.0833C0 13.7305 0.0868056 13.4061 0.260417 13.1104C0.434028 12.8146 0.673611 12.5694 0.979167 12.375C1.72917 11.9028 2.53151 11.5556 3.38621 11.3333C4.24092 11.1111 5.10897 11 5.99038 11C6.87179 11 7.73611 11.1181 8.58333 11.3542C9.43056 11.5903 10.2431 11.9306 11.0208 12.375C11.3125 12.5694 11.5486 12.8146 11.7292 13.1104C11.9097 13.4061 12 13.7305 12 14.0833V14.5C12 14.9125 11.853 15.2656 11.5591 15.5594C11.2652 15.8531 10.9119 16 10.4992 16H1.4941C1.08137 16 0.729167 15.8531 0.4375 15.5594C0.145833 15.2656 0 14.9125 0 14.5ZM5.98967 8.5C6.39933 8.5 6.75347 8.35414 7.05208 8.06242C7.35069 7.77068 7.5 7.41999 7.5 7.01033C7.5 6.60067 7.35069 6.24653 7.05208 5.94792C6.75347 5.64931 6.39933 5.5 5.98967 5.5C5.58001 5.5 5.22932 5.64931 4.93758 5.94792C4.64586 6.24653 4.5 6.60067 4.5 7.01033C4.5 7.41999 4.64586 7.77068 4.93758 8.06242C5.22932 8.35414 5.58001 8.5 5.98967 8.5ZM1.5 14.5H10.5V14.0833C10.5 13.999 10.4792 13.9224 10.4375 13.8535C10.3958 13.7845 10.3403 13.7222 10.2708 13.6667C9.60417 13.3056 8.91319 13.0208 8.19792 12.8125C7.48264 12.6042 6.74653 12.5 5.98958 12.5C5.23264 12.5 4.49653 12.6007 3.78125 12.8021C3.06597 13.0035 2.38194 13.2917 1.72917 13.6667C1.65972 13.7222 1.60417 13.7845 1.5625 13.8535C1.52083 13.9224 1.5 13.999 1.5 14.0833V14.5Z" fill="white"/>
</g>
</g>
</svg>
