<svg width="43" height="32" viewBox="0 0 43 32" fill="none" xmlns="http://www.w3.org/2000/svg">
<g id="Logo">
<path id="Subtract" fill-rule="evenodd" clip-rule="evenodd" d="M3 0.5C1.34315 0.5 0 1.84315 0 3.5V12.5C0 14.1569 1.34314 15.5 3 15.5H40C41.6568 15.5 43 14.1569 43 12.5V3.5C43 1.84315 41.6568 0.5 40 0.5H3ZM4.25999 11.5C4.19333 11.5 4.13333 11.4767 4.07999 11.43C4.02666 11.3767 3.99999 11.3133 3.99999 11.24V4.76C3.99999 4.68667 4.02666 4.62667 4.07999 4.58C4.13333 4.52667 4.19333 4.5 4.25999 4.5H6.99999C7.64666 4.5 8.20666 4.60667 8.67999 4.82C9.15333 5.02667 9.52666 5.33333 9.79999 5.74C10.0733 6.14667 10.22 6.64667 10.24 7.24C10.2533 7.52667 10.26 7.78 10.26 8C10.26 8.22 10.2533 8.47 10.24 8.75C10.2133 9.37667 10.07 9.89333 9.80999 10.3C9.55666 10.7067 9.19666 11.01 8.72999 11.21C8.26333 11.4033 7.70333 11.5 7.04999 11.5H4.25999ZM6.14999 9.8H6.99999C7.21999 9.8 7.40666 9.76333 7.55999 9.69C7.71333 9.61667 7.83333 9.50333 7.91999 9.35C8.00666 9.19 8.05333 8.98667 8.05999 8.74C8.06666 8.54667 8.06999 8.37333 8.06999 8.22C8.07666 8.06667 8.07666 7.91333 8.06999 7.76C8.06999 7.60667 8.06666 7.43667 8.05999 7.25C8.04666 6.88333 7.93999 6.61667 7.73999 6.45C7.54666 6.28333 7.28333 6.2 6.94999 6.2H6.14999V9.8ZM11.3554 11.43C11.4087 11.4767 11.4687 11.5 11.5354 11.5H13.1654C13.2387 11.5 13.2987 11.4767 13.3454 11.43C13.3987 11.3767 13.4254 11.3133 13.4254 11.24V9.17H14.1454L15.1454 11.23C15.1654 11.2833 15.2087 11.3433 15.2754 11.41C15.3421 11.47 15.4387 11.5 15.5654 11.5H17.2554C17.3154 11.5 17.3654 11.48 17.4054 11.44C17.4454 11.3933 17.4654 11.34 17.4654 11.28C17.4654 11.2467 17.4554 11.21 17.4354 11.17L16.1354 8.81C16.4821 8.62333 16.7621 8.36667 16.9754 8.04C17.1887 7.71333 17.2954 7.31667 17.2954 6.85C17.2954 6.11 17.0354 5.53333 16.5154 5.12C16.0021 4.70667 15.2921 4.5 14.3854 4.5H11.5354C11.4687 4.5 11.4087 4.52667 11.3554 4.58C11.3021 4.62667 11.2754 4.68667 11.2754 4.76V11.24C11.2754 11.3133 11.3021 11.3767 11.3554 11.43ZM14.3754 7.52H13.4254V6.12H14.3754C14.6154 6.12 14.7887 6.19 14.8954 6.33C15.0087 6.47 15.0654 6.64 15.0654 6.84C15.0654 7.03333 15.0087 7.19667 14.8954 7.33C14.7821 7.45667 14.6087 7.52 14.3754 7.52ZM18.6057 11.5C18.539 11.5 18.479 11.4767 18.4257 11.43C18.3724 11.3767 18.3457 11.3133 18.3457 11.24V4.76C18.3457 4.68667 18.3724 4.62667 18.4257 4.58C18.479 4.52667 18.539 4.5 18.6057 4.5H23.5057C23.579 4.5 23.6424 4.52667 23.6957 4.58C23.749 4.62667 23.7757 4.68667 23.7757 4.76V5.94C23.7757 6.00667 23.749 6.06667 23.6957 6.12C23.6424 6.17333 23.579 6.2 23.5057 6.2H20.4157V7.19H23.2857C23.359 7.19 23.4224 7.21667 23.4757 7.27C23.529 7.31667 23.5557 7.37667 23.5557 7.45V8.53C23.5557 8.60333 23.529 8.66667 23.4757 8.72C23.4224 8.76667 23.359 8.79 23.2857 8.79H20.4157V9.8H23.5857C23.659 9.8 23.7224 9.82667 23.7757 9.88C23.829 9.93333 23.8557 9.99667 23.8557 10.07V11.24C23.8557 11.3133 23.829 11.3767 23.7757 11.43C23.7224 11.4767 23.659 11.5 23.5857 11.5H18.6057ZM24.3589 11.44C24.4055 11.48 24.4589 11.5 24.5189 11.5H26.0589C26.1789 11.5 26.2622 11.4733 26.3089 11.42C26.3622 11.3667 26.3989 11.3167 26.4189 11.27L26.7289 10.43H29.1389L29.4489 11.27C29.4689 11.3167 29.5055 11.3667 29.5589 11.42C29.6122 11.4733 29.6955 11.5 29.8089 11.5H31.3489C31.4089 11.5 31.4589 11.48 31.4989 11.44C31.5455 11.3933 31.5689 11.34 31.5689 11.28C31.5689 11.2533 31.5655 11.23 31.5589 11.21L29.2689 4.81C29.2489 4.73667 29.2055 4.66667 29.1389 4.6C29.0722 4.53333 28.9755 4.5 28.8489 4.5H27.0189C26.8989 4.5 26.8022 4.53333 26.7289 4.6C26.6622 4.66667 26.6189 4.73667 26.5989 4.81L24.3189 11.21C24.3055 11.23 24.2989 11.2533 24.2989 11.28C24.2989 11.34 24.3189 11.3933 24.3589 11.44ZM28.6789 8.74H27.1889L27.9289 6.49L28.6789 8.74ZM32.3124 11.43C32.3657 11.4767 32.4291 11.5 32.5024 11.5H34.0024C34.0757 11.5 34.1357 11.4767 34.1824 11.43C34.2357 11.3767 34.2624 11.3133 34.2624 11.24V8L35.1624 9.58C35.1957 9.63333 35.2391 9.68667 35.2924 9.74C35.3457 9.79333 35.4191 9.82 35.5124 9.82H36.1224C36.2224 9.82 36.2991 9.79333 36.3524 9.74C36.4058 9.68667 36.4491 9.63333 36.4824 9.58L37.3824 8V11.24C37.3824 11.3133 37.4057 11.3767 37.4524 11.43C37.5057 11.4767 37.5691 11.5 37.6424 11.5H39.1424C39.2157 11.5 39.2757 11.4767 39.3224 11.43C39.3757 11.3767 39.4024 11.3133 39.4024 11.24V4.76C39.4024 4.68667 39.3757 4.62667 39.3224 4.58C39.2757 4.52667 39.2157 4.5 39.1424 4.5H37.8124C37.6924 4.5 37.6024 4.53333 37.5424 4.6C37.4824 4.66667 37.4424 4.71333 37.4224 4.74L35.8224 7.52L34.2224 4.74C34.2024 4.71333 34.1624 4.66667 34.1024 4.6C34.0424 4.53333 33.9524 4.5 33.8324 4.5H32.5024C32.4291 4.5 32.3657 4.52667 32.3124 4.58C32.2591 4.62667 32.2324 4.68667 32.2324 4.76V11.24C32.2324 11.3133 32.2591 11.3767 32.3124 11.43Z" fill="white" fill-opacity="0.8"/>
<path id="Subtract_2" fill-rule="evenodd" clip-rule="evenodd" d="M3 16.5C1.34315 16.5 0 17.8431 0 19.5V28.5C0 30.1569 1.34315 31.5 3 31.5H22C23.6569 31.5 25 30.1569 25 28.5V19.5C25 17.8431 23.6569 16.5 22 16.5H3ZM4.26 27.6C4.19334 27.6 4.13334 27.5767 4.08 27.53C4.02667 27.4767 4 27.4133 4 27.34V20.86C4 20.7867 4.02667 20.7267 4.08 20.68C4.13334 20.6267 4.19334 20.6 4.26 20.6H5.85C5.92334 20.6 5.98334 20.6267 6.03 20.68C6.08334 20.7267 6.11 20.7867 6.11 20.86V22.96L7.6 20.81C7.63334 20.7633 7.68 20.7167 7.74 20.67C7.8 20.6233 7.88334 20.6 7.99 20.6H9.82C9.88 20.6 9.93 20.6233 9.97 20.67C10.0167 20.71 10.04 20.76 10.04 20.82C10.04 20.86 10.0267 20.8967 10 20.93L7.9 23.95L10.18 27.27C10.2067 27.2967 10.22 27.3333 10.22 27.38C10.22 27.44 10.1967 27.4933 10.15 27.54C10.11 27.58 10.06 27.6 10 27.6H8.11C7.98334 27.6 7.88667 27.57 7.82 27.51C7.76 27.45 7.72334 27.4067 7.71 27.38L6.11 25.06V27.34C6.11 27.4133 6.08334 27.4767 6.03 27.53C5.98334 27.5767 5.92334 27.6 5.85 27.6H4.26ZM10.9745 27.53C11.0279 27.5767 11.0879 27.6 11.1545 27.6H12.8545C12.9279 27.6 12.9879 27.5767 13.0345 27.53C13.0879 27.4767 13.1145 27.4133 13.1145 27.34V20.86C13.1145 20.7867 13.0879 20.7267 13.0345 20.68C12.9879 20.6267 12.9279 20.6 12.8545 20.6H11.1545C11.0879 20.6 11.0279 20.6267 10.9745 20.68C10.9212 20.7267 10.8945 20.7867 10.8945 20.86V27.34C10.8945 27.4133 10.9212 27.4767 10.9745 27.53ZM14.4316 27.53C14.4849 27.5767 14.5449 27.6 14.6116 27.6H17.4016C18.0549 27.6 18.6149 27.5033 19.0816 27.31C19.5482 27.11 19.9082 26.8067 20.1616 26.4C20.4216 25.9933 20.5649 25.4767 20.5916 24.85C20.6049 24.57 20.6116 24.32 20.6116 24.1C20.6116 23.88 20.6049 23.6267 20.5916 23.34C20.5716 22.7467 20.4249 22.2467 20.1516 21.84C19.8782 21.4333 19.5049 21.1267 19.0316 20.92C18.5582 20.7067 17.9982 20.6 17.3516 20.6H14.6116C14.5449 20.6 14.4849 20.6267 14.4316 20.68C14.3782 20.7267 14.3516 20.7867 14.3516 20.86V27.34C14.3516 27.4133 14.3782 27.4767 14.4316 27.53ZM17.3516 25.9H16.5016V22.3H17.3016C17.6349 22.3 17.8982 22.3833 18.0916 22.55C18.2916 22.7167 18.3982 22.9833 18.4116 23.35C18.4182 23.5367 18.4216 23.7067 18.4216 23.86C18.4282 24.0133 18.4282 24.1667 18.4216 24.32C18.4216 24.4733 18.4182 24.6467 18.4116 24.84C18.4049 25.0867 18.3582 25.29 18.2716 25.45C18.1849 25.6033 18.0649 25.7167 17.9116 25.79C17.7582 25.8633 17.5716 25.9 17.3516 25.9Z" fill="white" fill-opacity="0.8"/>
</g>
</svg>
